<?xml version="1.0" encoding="utf-8"?>
<!-- Generator: Adobe Illustrator 25.3.1, SVG Export Plug-In . SVG Version: 6.00 Build 0)  -->
<svg version="1.1" id="Layer_1" xmlns="http://www.w3.org/2000/svg" xmlns:xlink="http://www.w3.org/1999/xlink" x="0px" y="0px"
	 viewBox="0 0 808.4 712.5" style="enable-background:new 0 0 808.4 712.5;" xml:space="preserve">
<style type="text/css">
	.st0{display:none;fill:#F2F2F2;}
	.st1{display:none;}
	.st2{display:inline;}
	.st3{fill:#FFFFFF;}
	.st4{clip-path:url(#SVGID_2_);}
	.st5{fill:#3EBBDD;}
	.st6{fill:#474747;}
	.st7{fill:#CECECE;}
	.st8{opacity:0.12;fill:#474747;}
	.st9{fill:#CCCCCC;}
	.st10{display:inline;fill:#0D42FF;}
	.st11{display:inline;fill:#FFFFFF;}
	.st12{display:inline;opacity:0.2;fill:#231F20;enable-background:new    ;}
	.st13{fill:#E8F2FA;}
	.st14{fill:#F3F8FC;}
	.st15{fill:#DCEAFB;}
	.st16{fill:#EBF5FF;}
	.st17{fill:#C7DBF9;}
	.st18{fill:#88ACF4;}
	.st19{fill:#B6CFFF;}
	.st20{fill:#A9C2FF;}
	.st21{fill:#CEDFFF;}
	.st22{fill:#BAD7FD;}
	.st23{fill:#DCEAFF;}
	.st24{fill:#B0D2F5;}
	.st25{fill:#25468F;}
	.st26{fill:#FFAE73;}
	.st27{fill:#FF912B;}
	.st28{fill:#F48F4E;}
	.st29{fill:#2A3967;}
	.st30{fill:#8EAFF1;}
	.st31{fill:#C3DAF6;}
	.st32{fill:#D0E3F9;}
	.st33{fill:#9DDEDA;}
	.st34{fill:#1E3865;}
	.st35{fill:#9E2726;}
	.st36{fill:#C23B35;}
	.st37{fill:#EE8C4D;}
	.st38{fill:#7FCFCF;}
	.st39{fill:#D44B40;}
	.st40{fill:#F99352;}
	.st41{fill:#4FB8C0;}
</style>
<path class="st0" d="M870.2,557.2l-2-27.6c-13-6.5-27.4-9.7-41.9-9.4c20.4,15.8,18.8,47.4,32.9,69c9,13.6,23.8,22.3,40,23.7l17,9.8
	c3.9-26-3.7-52.5-20.9-72.3c-4.8-5.5-10.3-10.3-16.4-14.4C875.2,546.6,870.2,557.2,870.2,557.2z"/>
<g class="st1">
	<g class="st2">
		<path class="st3" d="M196.3,437.8v0.5h0.4C196.6,438.2,196.5,438,196.3,437.8z M199.2,211.5c-26,33.8-40.1,75.2-40,117.9
			c0,6.5,0.3,12.9,1,19.2c0.1,1.1,0.2,2.2,0.4,3.2c3.6,31.4,14.9,61.4,32.8,87.4c0.7,1,1.4,2,2.1,3C203.2,453,212,463,221.8,472
			c78.7,72.6,201.3,67.7,273.9-10.9c1.1-1.2,2.2-2.4,3.2-3.6c61.3-69.4,64.9-172.6,8.5-246.1c-0.8-1.1-1.7-2.2-2.5-3.2
			c-1.9-2.4-3.9-4.8-6-7.1c-1.1-1.2-2.1-2.4-3.2-3.6c-36.7-39.8-88.3-62.4-142.4-62.3c-1.9,0-3.7,0-5.5,0.1c-1.2,0-2.5,0.1-3.7,0.1
			c-55.7,2.6-107.6,29.2-142.3,72.8C200.9,209.3,200,210.4,199.2,211.5L199.2,211.5z M196.7,438.4c-0.1-0.2-0.3-0.3-0.4-0.5v0.5
			H196.7z"/>
		<g>
			<defs>
				<path id="SVGID_1_" d="M196.3,437.8v0.5h0.4C196.6,438.2,196.5,438,196.3,437.8z M199.2,211.5c-26,33.8-40.1,75.2-40,117.9
					c0,6.5,0.3,12.9,1,19.2c0.1,1.1,0.2,2.2,0.4,3.2c3.6,31.4,14.9,61.4,32.8,87.4c0.7,1,1.4,2,2.1,3C203.2,453,212,463,221.8,472
					c78.7,72.6,201.3,67.7,273.9-10.9c1.1-1.2,2.2-2.4,3.2-3.6c61.3-69.4,64.9-172.6,8.5-246.1c-0.8-1.1-1.7-2.2-2.5-3.2
					c-1.9-2.4-3.9-4.8-6-7.1c-1.1-1.2-2.1-2.4-3.2-3.6c-36.7-39.8-88.3-62.4-142.4-62.3c-1.9,0-3.7,0-5.5,0.1
					c-1.2,0-2.5,0.1-3.7,0.1c-55.7,2.6-107.6,29.2-142.3,72.8C200.9,209.3,200,210.4,199.2,211.5L199.2,211.5z M196.7,438.4
					c-0.1-0.2-0.3-0.3-0.4-0.5v0.5H196.7z"/>
			</defs>
			<clipPath id="SVGID_2_">
				<use xlink:href="#SVGID_1_"  style="overflow:visible;"/>
			</clipPath>
			<g class="st4">
				<g>
					<g>
						<rect x="107.9" y="319" class="st5" width="137.6" height="205.1"/>
						<rect x="105.5" y="312.3" class="st6" width="142.6" height="14.5"/>
						<g>
							<rect x="146.9" y="421.6" class="st7" width="59.7" height="101.1"/>
							<rect x="149.9" y="425.3" class="st3" width="53.8" height="93.6"/>
							<rect x="175.1" y="421.6" class="st7" width="3.3" height="101.1"/>
						</g>
						<g>
							<g>
								<rect x="121.9" y="352.5" class="st7" width="28.6" height="47.4"/>
								<rect x="123.4" y="354.3" class="st3" width="25.7" height="43.9"/>
								<rect x="135.4" y="352.5" class="st7" width="1.6" height="47.4"/>
								
									<rect x="135.3" y="362" transform="matrix(-1.836970e-16 1 -1 -1.836970e-16 512.4181 240.027)" class="st7" width="1.7" height="28.5"/>
							</g>
							<g>
								<rect x="162.5" y="352.5" class="st7" width="28.6" height="47.4"/>
								<rect x="163.9" y="354.3" class="st3" width="25.7" height="43.9"/>
								<rect x="176" y="352.5" class="st7" width="1.6" height="47.4"/>
								
									<rect x="175.9" y="362" transform="matrix(-1.836970e-16 1 -1 -1.836970e-16 552.9819 199.4633)" class="st7" width="1.7" height="28.5"/>
							</g>
							<g>
								<rect x="203.1" y="352.5" class="st7" width="28.6" height="47.4"/>
								<rect x="204.5" y="354.3" class="st3" width="25.7" height="43.9"/>
								<rect x="216.5" y="352.5" class="st7" width="1.6" height="47.4"/>
								
									<rect x="216.5" y="362" transform="matrix(-1.836970e-16 1 -1 -1.836970e-16 593.5456 158.8995)" class="st7" width="1.7" height="28.5"/>
							</g>
						</g>
						<rect x="105.5" y="512.4" class="st6" width="142.6" height="14.5"/>
					</g>
					<g>
						<rect x="471.4" y="319" class="st5" width="137.6" height="205.1"/>
						<rect x="468.9" y="312.3" class="st6" width="142.6" height="14.5"/>
						<g>
							<rect x="510.4" y="421.6" class="st7" width="59.7" height="101.1"/>
							<rect x="513.3" y="425.3" class="st3" width="53.8" height="93.6"/>
							<rect x="538.6" y="421.6" class="st7" width="3.3" height="101.1"/>
						</g>
						<g>
							<g>
								<rect x="485.4" y="352.5" class="st7" width="28.6" height="47.4"/>
								<rect x="486.8" y="354.3" class="st3" width="25.7" height="43.9"/>
								<rect x="498.9" y="352.5" class="st7" width="1.6" height="47.4"/>
								
									<rect x="498.8" y="362" transform="matrix(-1.836970e-16 1 -1 -1.836970e-16 875.8648 -123.4197)" class="st7" width="1.7" height="28.5"/>
							</g>
							<g>
								<rect x="525.9" y="352.5" class="st7" width="28.6" height="47.4"/>
								<rect x="527.4" y="354.3" class="st3" width="25.7" height="43.9"/>
								<rect x="539.4" y="352.5" class="st7" width="1.6" height="47.4"/>
								
									<rect x="539.4" y="362" transform="matrix(-1.836970e-16 1 -1 -1.836970e-16 916.4286 -163.9835)" class="st7" width="1.7" height="28.5"/>
							</g>
							<g>
								<rect x="566.5" y="352.5" class="st7" width="28.6" height="47.4"/>
								<rect x="567.9" y="354.3" class="st3" width="25.7" height="43.9"/>
								<rect x="580" y="352.5" class="st7" width="1.6" height="47.4"/>
								
									<rect x="579.9" y="362" transform="matrix(-1.836970e-16 1 -1 -1.836970e-16 956.9922 -204.5471)" class="st7" width="1.7" height="28.5"/>
							</g>
						</g>
						<rect x="468.9" y="512.4" class="st6" width="142.6" height="14.5"/>
					</g>
				</g>
				<rect x="239.9" y="329.7" class="st8" width="237.2" height="197.2"/>
				<g>
					<rect x="243.3" y="245.1" class="st5" width="230.4" height="281.8"/>
					<g>
						<g>
							<rect x="302.9" y="419.4" class="st7" width="111.1" height="88.6"/>
							<rect x="307.6" y="423.2" class="st3" width="101.8" height="81.2"/>
							<rect x="356.4" y="420" class="st7" width="4.2" height="87.4"/>
						</g>
						<rect x="297" y="498.9" class="st6" width="123" height="11.6"/>
						<rect x="298.8" y="417.8" class="st6" width="119.4" height="8"/>
					</g>
					<g>
						<g>
							<rect x="274.1" y="355.7" class="st7" width="32.3" height="45.1"/>
							<rect x="275.7" y="357.4" class="st3" width="29.1" height="41.8"/>
							<rect x="289.4" y="355.7" class="st7" width="1.8" height="45.1"/>
							
								<rect x="289.5" y="362.1" transform="matrix(-1.836970e-16 1 -1 -1.836970e-16 668.546 87.9916)" class="st7" width="1.6" height="32.3"/>
						</g>
						<g>
							<rect x="319.6" y="355.7" class="st7" width="32.3" height="45.1"/>
							<rect x="321.2" y="357.4" class="st3" width="29.1" height="41.8"/>
							<rect x="334.9" y="355.7" class="st7" width="1.8" height="45.1"/>
							
								<rect x="334.9" y="362.1" transform="matrix(-1.836970e-16 1 -1 -1.836970e-16 714.0156 42.522)" class="st7" width="1.6" height="32.3"/>
						</g>
						<g>
							<rect x="365.1" y="355.7" class="st7" width="32.3" height="45.1"/>
							<rect x="366.7" y="357.4" class="st3" width="29.1" height="41.8"/>
							<rect x="380.3" y="355.7" class="st7" width="1.8" height="45.1"/>
							
								<rect x="380.4" y="362.1" transform="matrix(-1.836970e-16 1 -1 -1.836970e-16 759.4852 -2.9475)" class="st7" width="1.6" height="32.3"/>
						</g>
						<g>
							<rect x="410.5" y="355.7" class="st7" width="32.3" height="45.1"/>
							<rect x="412.1" y="357.4" class="st3" width="29.1" height="41.8"/>
							<rect x="425.8" y="355.7" class="st7" width="1.8" height="45.1"/>
							
								<rect x="425.9" y="362.1" transform="matrix(-1.836970e-16 1 -1 -1.836970e-16 804.9547 -48.417)" class="st7" width="1.6" height="32.3"/>
						</g>
					</g>
					<rect x="243.3" y="508.5" class="st6" width="230.4" height="18.4"/>
					<rect x="239.5" y="241.3" class="st6" width="238" height="18.8"/>
					<g>
						
							<ellipse transform="matrix(0.821 -0.571 0.571 0.821 -110.4853 259.4487)" class="st3" cx="358.5" cy="305.9" rx="37.9" ry="37.9"/>
						<g>
							<path class="st5" d="M366.3,332.3h-15.5c-0.7,0-1.2-0.6-1.2-1.2v-50.4c0-0.7,0.6-1.2,1.2-1.2h15.5c0.7,0,1.2,0.6,1.2,1.2
								v50.4C367.5,331.8,366.9,332.3,366.3,332.3z"/>
							<path class="st5" d="M332.1,313.7v-15.5c0-0.7,0.6-1.2,1.2-1.2h50.4c0.7,0,1.2,0.6,1.2,1.2v15.5c0,0.7-0.6,1.2-1.2,1.2h-50.4
								C332.6,314.9,332.1,314.4,332.1,313.7z"/>
						</g>
					</g>
				</g>
			</g>
		</g>
		<path class="st9" d="M196.3,437.8v0.5h0.4C196.6,438.2,196.5,438,196.3,437.8z M199.2,211.5c-26,33.8-40.1,75.2-40,117.9
			c0,6.5,0.3,12.9,1,19.2c0.1,1.1,0.2,2.2,0.4,3.2c3.6,31.4,14.9,61.4,32.8,87.4c0.7,1,1.4,2,2.1,3C203.2,453,212,463,221.8,472
			c78.7,72.6,201.3,67.7,273.9-10.9c1.1-1.2,2.2-2.4,3.2-3.6c61.3-69.4,64.9-172.6,8.5-246.1c-0.8-1.1-1.7-2.2-2.5-3.2
			c-1.9-2.4-3.9-4.8-6-7.1c-1.1-1.2-2.1-2.4-3.2-3.6c-36.7-39.8-88.3-62.4-142.4-62.3c-1.9,0-3.7,0-5.5,0.1c-1.2,0-2.5,0.1-3.7,0.1
			c-55.7,2.6-107.6,29.2-142.3,72.8C200.9,209.3,200,210.4,199.2,211.5L199.2,211.5z M163.8,351.8c-0.1-1.1-0.3-2.2-0.4-3.2
			c-4.9-49.1,9.4-98.3,39.9-137.1c0.9-1.1,1.7-2.2,2.6-3.2c33.8-41.2,83.3-66.4,136.5-69.5c1.2-0.1,2.5-0.1,3.7-0.2
			c2.4-0.1,4.8-0.1,7.2-0.1c54.4,0,106.2,23.2,142.4,63.9c1.1,1.2,2.2,2.5,3.2,3.7c0.6,0.7,1.2,1.4,1.8,2.2c0.9,1.1,1.7,2.2,2.6,3.2
			c56.1,71.2,54.2,172-4.4,241.1c-1,1.3-2.1,2.5-3.2,3.7c-9.8,11.1-21,20.9-33.1,29.4c-86.3,60.4-205.1,39.4-265.5-46.9
			c-0.1-0.2-0.3-0.4-0.4-0.5c-0.1-0.2-0.3-0.3-0.4-0.5c-0.5-0.7-0.9-1.3-1.4-2C178,410.7,167.3,381.9,163.8,351.8L163.8,351.8z
			 M196.7,438.4c-0.1-0.2-0.3-0.3-0.4-0.5v0.5H196.7z"/>
	</g>
	<path class="st10" d="M62.4,25.5c63.1-44.5,150.3-29.3,194.8,33.8c44.5,63.1,89.1,228.7,57.6,324.6
		C220.8,284.7,76.5,274.4,28.6,220.3C-22.7,162.6-0.8,70,62.4,25.5z"/>
	<circle id="faf5c3b1-f7bb-4793-8f76-a694569c182e" class="st11" cx="144.8" cy="122.9" r="45.6"/>
	<circle id="e618366e-6f5c-4381-83a5-490aecbf791d" class="st10" cx="353.3" cy="403.7" r="29.9"/>
	<path class="st12" d="M96,112.4c-12.7,21.7-5.4,49.7,16.4,62.4c21.7,12.7,49.7,5.4,62.4-16.4c-18.9,16.6-47.7,14.7-64.3-4.2
		c-12.9-14.8-15-36.1-5.1-53.1C101.6,104.3,98.5,108.1,96,112.4z"/>
	<path class="st12" d="M28.5,220.5c48,54.1,192.3,64.4,286.2,163.6c2.9-9.1,5.2-18.4,6.8-27.8C227.5,266.2,91.3,254.8,44.9,202.5
		C3.5,155.8,9.9,86.2,47.3,37.8C-4,85.4-18.5,167.6,28.5,220.5z"/>
</g>
<g>
	<path class="st13" d="M751,711.5l-706.3-1c-2.2-5.6-75.7-247,37.2-324.4c0.2-0.1,0.4-0.3,0.7-0.4c1.5-1,3-2,4.4-3
		c72.9-47.8,135.4-54.3,187.4-43.8h0c1.7,0.3,3.4,0.7,5.1,1.1c76.6,17.3,129.5,70.8,157.8,79.5c121.6,37.4,168.1-49.1,263-20.5
		C807.6,431.3,800.2,630.7,751,711.5z"/>
	<g>
		<path class="st14" d="M274.4,339c-52-10.5-114.5-4-187.4,43.8c-1.5,1-3,2-4.4,3c-0.2,0.1-0.4,0.3-0.7,0.4v104.1v1.4h192.4v-1.4
			L274.4,339L274.4,339z"/>
		<g>
			<path class="st15" d="M256.8,395.8v-30.3c-0.2-0.1-0.5-0.2-0.7-0.4h-4.4v0h-25.5v0h0v4.6h0v3.1h0v4.5h0v3.1h0v4.5h0v0l-2.7,0
				v-23.8h-28.6v3h0v4.5h0v4h0v4.5h0v3.1h0v4.5h0v2.9h0v4.5h0v2.9h0v4.6h0v2.7h0v2.9h0v0.3h-32.3v26h-12v6.6h-13v-11.3h-23.4v-30.7
				h-3.7v-3.1H110v3.1h-3v0H91.8v-3.1h-0.5v3.1h-4v15.4h-0.3l-5.1,0v78.4h-7.8v7h200.2V395.8H256.8z"/>
			<g>
				<rect x="194.9" y="361.2" class="st16" width="18.3" height="6.1"/>
				<rect x="194.9" y="370.5" class="st16" width="18.3" height="6.1"/>
				<rect x="194.9" y="380" class="st16" width="18.3" height="6.1"/>
				<rect x="194.9" y="389.7" class="st16" width="18.3" height="6.1"/>
				<rect x="194.9" y="399" class="st16" width="18.3" height="6.1"/>
			</g>
			<g>
				<rect x="194.9" y="409.3" class="st16" width="18.3" height="6.1"/>
				<rect x="194.9" y="418.6" class="st16" width="18.3" height="6.1"/>
				<rect x="194.9" y="428.2" class="st16" width="18.3" height="6.1"/>
				<rect x="194.9" y="437.8" class="st16" width="18.3" height="6.1"/>
				<rect x="194.9" y="447.2" class="st16" width="18.3" height="6.1"/>
			</g>
			<g>
				<rect x="226.2" y="365.2" class="st16" width="18.3" height="6.1"/>
				<rect x="226.2" y="374.5" class="st16" width="18.3" height="6.1"/>
				<rect x="226.2" y="384" class="st16" width="18.3" height="6.1"/>
				<rect x="226.2" y="393.7" class="st16" width="18.3" height="6.1"/>
				<rect x="226.2" y="403" class="st16" width="18.3" height="6.1"/>
			</g>
			<g>
				<rect x="226.2" y="412.7" class="st16" width="18.3" height="6.1"/>
				<rect x="226.2" y="422.1" class="st16" width="18.3" height="6.1"/>
				<rect x="226.2" y="431.6" class="st16" width="18.3" height="6.1"/>
				<rect x="226.2" y="441.3" class="st16" width="18.3" height="6.1"/>
				<rect x="226.2" y="450.6" class="st16" width="18.3" height="6.1"/>
			</g>
			<g>
				<rect x="226.2" y="461.3" class="st16" width="18.3" height="6.1"/>
				<rect x="226.2" y="470.6" class="st16" width="18.3" height="6.1"/>
				<rect x="226.2" y="480.2" class="st16" width="18.3" height="6.1"/>
				<rect x="226.2" y="489.8" class="st16" width="18.3" height="6.1"/>
			</g>
			<rect x="168.6" y="393.7" class="st15" width="0.9" height="12.4"/>
			<rect x="183.9" y="383.1" class="st15" width="1.4" height="23.9"/>
			<rect x="197.7" y="357.8" class="st15" width="0.5" height="3.4"/>
			<rect x="219.2" y="357.8" class="st15" width="0.5" height="3.4"/>
		</g>
		<rect x="74.2" y="490.2" class="st17" width="207.2" height="7"/>
		<path class="st17" d="M87,382.8v107.5h-5.1V386.2c0.2-0.1,0.4-0.3,0.7-0.4C84.1,384.7,85.6,383.7,87,382.8z"/>
		<path class="st17" d="M274.4,339c1.7,0.3,3.4,0.7,5.1,1.1v150.2h-5.1h0L274.4,339L274.4,339z"/>
	</g>
	<g>
		<path class="st18" d="M663.4,622.3v2.2c0,0.8,0.3,1.4,0.6,1.4h81.7c0.3,0,0.6-0.6,0.6-1.4v-2.2c0-0.8-0.3-1.4-0.6-1.4h-81.7
			C663.6,620.9,663.4,621.5,663.4,622.3z"/>
		<path class="st19" d="M663.4,622.3v2.2c0,0.8,0.2,1.4,0.5,1.4h64.8c0.3,0,0.5-0.6,0.5-1.4v-2.2c0-0.8-0.2-1.4-0.5-1.4h-64.8
			C663.6,620.9,663.4,621.5,663.4,622.3z"/>
		
			<rect x="684" y="626" transform="matrix(-1 -1.224647e-16 1.224647e-16 -1 1426.0251 1336.4659)" class="st20" width="58" height="84.5"/>
		
			<rect x="667.8" y="626" transform="matrix(-1 -1.224647e-16 1.224647e-16 -1 1393.5341 1336.4659)" class="st21" width="58" height="84.5"/>
		<g>
			<g>
				<path class="st20" d="M670.9,628.4h51.7v77.4h-51.7V628.4z M722.1,628.9h-50.6v76.3h50.6V628.9z"/>
			</g>
			<g>
				<rect x="671.2" y="654" class="st20" width="51.2" height="0.6"/>
			</g>
			<g>
				<rect x="671.2" y="680.1" class="st20" width="51.2" height="0.6"/>
			</g>
			<path class="st20" d="M691.5,633.4h9.5c0.5,0,0.8-0.4,0.8-0.8l0,0c0-0.5-0.4-0.8-0.8-0.8h-9.5c-0.5,0-0.8,0.4-0.8,0.8l0,0
				C690.7,633,691.1,633.4,691.5,633.4z"/>
			<path class="st20" d="M691.5,658.9h9.5c0.5,0,0.8-0.4,0.8-0.8l0,0c0-0.5-0.4-0.8-0.8-0.8h-9.5c-0.5,0-0.8,0.4-0.8,0.8l0,0
				C690.7,658.5,691.1,658.9,691.5,658.9z"/>
			<path class="st20" d="M691.5,685.5h9.5c0.5,0,0.8-0.4,0.8-0.8l0,0c0-0.5-0.4-0.8-0.8-0.8h-9.5c-0.5,0-0.8,0.4-0.8,0.8l0,0
				C690.7,685.2,691.1,685.5,691.5,685.5z"/>
		</g>
	</g>
	<g>
		<path class="st22" d="M698.2,460.6h-18.3c-4.8,0-8.7-3.9-8.7-8.7v-17.3c0-4.8,3.9-8.7,8.7-8.7h18.3c4.8,0,8.7,3.9,8.7,8.7v17.3
			C706.9,456.6,702.9,460.6,698.2,460.6z"/>
		<path class="st23" d="M697.4,459.1h-16.8c-4.4,0-7.9-3.6-7.9-7.9v-15.8c0-4.4,3.6-7.9,7.9-7.9h16.8c4.4,0,7.9,3.6,7.9,7.9v15.8
			C705.3,455.5,701.7,459.1,697.4,459.1z"/>
		<g>
			<g>
				<path class="st24" d="M688.3,430.5c0-0.4,0.3-0.7,0.7-0.7s0.7,0.3,0.7,0.7s-0.3,0.7-0.7,0.7S688.3,431,688.3,430.5z"/>
				<path class="st24" d="M694.2,431.6c0.2-0.4,0.6-0.5,1-0.3c0.4,0.2,0.5,0.6,0.3,1c-0.2,0.4-0.6,0.5-1,0.3
					C694.2,432.4,694,432,694.2,431.6z"/>
				<path class="st24" d="M699.3,435.7c0.3-0.2,0.8-0.1,1,0.2c0.2,0.3,0.1,0.8-0.2,1c-0.3,0.2-0.8,0.1-1-0.2
					C698.9,436.3,699,435.9,699.3,435.7z"/>
				<path class="st24" d="M701.9,442c0.4,0,0.7,0.3,0.7,0.7c0,0.4-0.3,0.7-0.7,0.7c-0.4,0-0.7-0.3-0.7-0.7
					C701.1,442.3,701.5,442,701.9,442z"/>
				<path class="st24" d="M700.6,449.3c0.3,0.3,0.3,0.8,0,1c-0.3,0.3-0.8,0.3-1,0c-0.3-0.3-0.3-0.8,0-1
					C699.8,449,700.3,449,700.6,449.3z"/>
				<path class="st24" d="M695.9,453.9c0.3,0.3,0.3,0.8,0,1c-0.3,0.3-0.8,0.3-1,0c-0.3-0.3-0.3-0.8,0-1
					C695.2,453.6,695.6,453.6,695.9,453.9z"/>
				<path class="st24" d="M688.3,456.3c0-0.4,0.3-0.7,0.7-0.7s0.7,0.3,0.7,0.7c0,0.4-0.3,0.7-0.7,0.7S688.3,456.7,688.3,456.3z"/>
			</g>
			<g>
				<path class="st24" d="M683.7,431.6c-0.2-0.4-0.6-0.5-1-0.3c-0.4,0.2-0.5,0.6-0.3,1c0.2,0.4,0.6,0.5,1,0.3
					C683.8,432.4,683.9,432,683.7,431.6z"/>
				<path class="st24" d="M678.6,435.7c-0.3-0.2-0.8-0.1-1,0.2c-0.2,0.3-0.1,0.8,0.2,1c0.3,0.2,0.8,0.1,1-0.2
					C679.1,436.3,679,435.9,678.6,435.7z"/>
				<path class="st24" d="M676.1,442c-0.4,0-0.7,0.3-0.7,0.7c0,0.4,0.3,0.7,0.7,0.7s0.7-0.3,0.7-0.7
					C676.8,442.3,676.5,442,676.1,442z"/>
				<path class="st24" d="M677.4,449.3c-0.3,0.3-0.3,0.8,0,1c0.3,0.3,0.8,0.3,1,0c0.3-0.3,0.3-0.8,0-1
					C678.1,449,677.7,449,677.4,449.3z"/>
				<path class="st24" d="M682,453.9c-0.3,0.3-0.3,0.8,0,1c0.3,0.3,0.8,0.3,1,0c0.3-0.3,0.3-0.8,0-1
					C682.8,453.6,682.3,453.6,682,453.9z"/>
			</g>
		</g>
		<g>
			<path class="st24" d="M688.8,442.7c0-0.4,0.3-0.7,0.7-0.7c0.4,0,0.7,0.3,0.7,0.7c0,0.4-0.3,0.7-0.7,0.7
				C689.1,443.4,688.8,443.1,688.8,442.7z"/>
			<g>
				<rect x="689.4" y="433.4" class="st24" width="0.2" height="9.2"/>
			</g>
			<g>
				
					<rect x="688.8" y="440.5" transform="matrix(0.7867 -0.6173 0.6173 0.7867 -124.514 521.1498)" class="st24" width="6.2" height="0.6"/>
			</g>
		</g>
	</g>
	<g>
		<path class="st21" d="M388.4,616.3H235.1L168,549.8c-4.3-4.3-3.8-11.4,1.1-15l3.4-2.5l135.8,2L388.4,616.3z"/>
		<path class="st20" d="M236.2,618l-12.7,9.4l-57.9-77.9c-3.2-4.3-2.3-10.4,2-13.6l4.9-3.6L236.2,618z"/>
		<path class="st20" d="M168.2,627.4h376.7c4.6,0,8.4-3.7,8.4-8.4l0,0c0-4.6-3.7-8.4-8.4-8.4H168.2c-4.6,0-8.4,3.7-8.4,8.4l0,0
			C159.8,623.7,163.6,627.4,168.2,627.4z"/>
		<rect x="223.5" y="627.4" class="st20" width="6" height="76.2"/>
		<rect x="623.4" y="627.4" class="st20" width="6" height="76.2"/>
		<rect x="532" y="627.4" class="st20" width="6" height="76.2"/>
		<rect x="329.7" y="627.4" class="st20" width="6" height="76.2"/>
		<rect x="223.5" y="676.1" class="st20" width="278.4" height="6.4"/>
		<rect x="496" y="676.1" class="st20" width="133.4" height="6.4"/>
		<g>
			
				<ellipse transform="matrix(0.9216 -0.3882 0.3882 0.9216 -255.3687 143.1125)" class="st25" cx="226.6" cy="703.7" rx="6.8" ry="6.8"/>
			
				<ellipse transform="matrix(2.626996e-02 -0.9997 0.9997 2.626996e-02 -482.8096 911.6434)" class="st20" cx="226.6" cy="703.7" rx="3.8" ry="3.8"/>
		</g>
		<g>
			<path class="st25" d="M325.9,703.7c0-3.8,3.1-6.8,6.8-6.8c3.8,0,6.8,3.1,6.8,6.8s-3.1,6.8-6.8,6.8
				C328.9,710.5,325.9,707.4,325.9,703.7z"/>
			
				<ellipse transform="matrix(2.628803e-02 -0.9997 0.9997 2.628803e-02 -379.4605 1017.7371)" class="st20" cx="332.7" cy="703.7" rx="3.8" ry="3.8"/>
		</g>
		<g>
			
				<ellipse transform="matrix(0.9239 -0.3827 0.3827 0.9239 -228.5477 258.3198)" class="st25" cx="535.1" cy="703.7" rx="6.8" ry="6.8"/>
			<path class="st20" d="M531.3,703.7c0-2.1,1.7-3.8,3.8-3.8s3.8,1.7,3.8,3.8c0,2.1-1.7,3.8-3.8,3.8S531.3,705.8,531.3,703.7z"/>
		</g>
		<polygon class="st20" points="173.6,545.4 173.6,614.3 182,614.3 182,554.8 		"/>
		<polygon class="st26" points="300.5,549.4 332.6,561.5 315.4,564.3 303.5,556.3 		"/>
		<path class="st27" d="M358,611.7c1.2,0.5,20.2-26.9,17.9-34.5c-0.1-0.4-40.9-8.3-47.7-10.2c-14.9-4.2-31.8-19.3-40.2-20.7
			c-17.5-2.9-46.4,14.5-41.8,29.5c6.9,22.6,20.1,36,42.1,35.8C289.1,611.5,356.6,611.2,358,611.7z"/>
		<g>
			<path class="st26" d="M272.5,559.5c2.5-1.2,5-3,6-5.6c1-2.4-0.5-4.9-2.9-5.3c-1-0.2-3.2-2.5-4.2-3.5c-3.7-3.7-6.1-5.5-6.1-5.5
				l-16.5,0.3c2,0.5,6.7,10.8,7.7,16.7C257.3,561.8,267.8,561.8,272.5,559.5z"/>
			<path class="st28" d="M271.3,545.1c-2.5-4.1-4.1-6.5-4.1-6.5l-15,4.9C256.4,546.5,261.9,548.5,271.3,545.1z"/>
			<g>
				<path class="st26" d="M272.2,541.5c0,0-18,9.2-23.6-2.1c-5.6-11.3-11.7-17.7-0.4-24.1c11.3-6.4,15.7-3.2,18.4,0.2
					C269.4,518.8,276.7,538.8,272.2,541.5z"/>
				<path class="st29" d="M251.1,535.2c0,0-3.3-1.7-2.4-3.8c0.9-2.1,2.6,0.1,3.7-0.3c1.1-0.4,2.1-4.5,1.3-7.6
					c-0.8-3.1,11.7-2,15.7-4.8c4-2.9,6-10-2-11c-4.7-0.6-28.2-3.8-32.8,8.5c-5.9,15.7,11.5,24.6,13.9,26c2.4,1.4,3.2,0.5,3.2,0.5
					S253.5,537.5,251.1,535.2z"/>
			</g>
		</g>
		<path class="st27" d="M283.6,545.9c0,0,8.9-1.4,24.2,4.3c0,0-1.1,4.4-5.8,7C297.2,559.8,283.6,545.9,283.6,545.9z"/>
		<path class="st25" d="M495.8,581.1c0,0-78.9,0.9-115.5-10.2c-36.6-11.1-66.4-10.4-66.4-10.4s-24,24.9-29.8,47.7
			c-0.4,1.4-0.6,2.9-0.6,4.4v26.6c0,0,44.4-10.9,97.5,0c40.8,8.4,111.8,0,111.8,0L495.8,581.1z"/>
		<path class="st26" d="M254.9,590.3c0,0,45.6,16.5,54.8,14.8c9.3-1.7,33.6-27.9,33.6-27.9l-4.6-3.3l-31.5,17.2
			c0,0-28.9-15.3-41.3-23.2C259.1,563.7,251.2,588.8,254.9,590.3z"/>
		<path class="st27" d="M285.7,579.3c-2.4,8.5-6.8,15.9-17.3,21.9c-1.7,1-3.1,2.4-4.5,1.1c-5-4.7-15.2-15.1-17.8-26.6
			c-0.2-1.1,1-3.2,1.8-4c3-2.9,11-8.8,17.5-7.2c5.8,1.5,15,6.8,19.9,9.9C287,575.4,286.3,577.3,285.7,579.3z"/>
		<path class="st26" d="M338.7,573.9c0,0,1.9-4.8,2.4-6.1c0.5-1.2,4.3-4.4,4.4-3.5c0.1,0.9-1.3,2.8-0.7,2.9c0.5,0.1,2.8-4.1,4.4-4.1
			c1.5,0,0.7,5.4,0.1,7.8c-0.5,2.4-5.9,6.3-5.9,6.3L338.7,573.9z"/>
		<path class="st20" d="M622.2,627.4H494.1c-6,0-10.9-4.9-10.9-10.9v-45.1c0-6,4.9-10.9,10.9-10.9h128.2c6,0,10.9,4.9,10.9,10.9
			v45.1C633.1,622.5,628.2,627.4,622.2,627.4z"/>
	</g>
	<g>
		<g>
			<rect x="62.5" y="643.4" class="st20" width="3.6" height="57.5"/>
			
				<rect x="100.4" y="646.4" transform="matrix(-1.836970e-16 1 -1 -1.836970e-16 788.2906 583.8785)" class="st20" width="3.6" height="79.3"/>
			<rect x="138.3" y="643.4" class="st20" width="3.6" height="57.5"/>
			<rect x="111.8" y="643.4" class="st20" width="3.6" height="57.5"/>
			<g>
				<path class="st25" d="M58.2,704.4c0-3.4,2.8-6.1,6.1-6.1c3.4,0,6.1,2.8,6.1,6.1s-2.8,6.1-6.1,6.1
					C60.9,710.5,58.2,707.8,58.2,704.4z"/>
				<path class="st20" d="M60.9,704.4c0-1.9,1.5-3.4,3.4-3.4c1.9,0,3.4,1.5,3.4,3.4c0,1.9-1.5,3.4-3.4,3.4
					C62.4,707.8,60.9,706.3,60.9,704.4z"/>
			</g>
			<g>
				<path class="st25" d="M107.5,704.4c0-3.4,2.8-6.1,6.1-6.1c3.4,0,6.1,2.8,6.1,6.1s-2.8,6.1-6.1,6.1
					C110.2,710.5,107.5,707.8,107.5,704.4z"/>
				<path class="st20" d="M110.2,704.4c0-1.9,1.5-3.4,3.4-3.4c1.9,0,3.4,1.5,3.4,3.4c0,1.9-1.5,3.4-3.4,3.4
					C111.7,707.8,110.2,706.3,110.2,704.4z"/>
			</g>
			<g>
				<path class="st25" d="M133.9,704.4c0-3.4,2.8-6.1,6.1-6.1c3.4,0,6.1,2.8,6.1,6.1s-2.8,6.1-6.1,6.1
					C136.7,710.5,133.9,707.8,133.9,704.4z"/>
				<path class="st20" d="M136.7,704.4c0-1.9,1.5-3.4,3.4-3.4c1.9,0,3.4,1.5,3.4,3.4c0,1.9-1.5,3.4-3.4,3.4
					C138.2,707.8,136.7,706.3,136.7,704.4z"/>
			</g>
			<rect x="89" y="612.7" class="st30" width="52.9" height="39"/>
			<rect x="62.5" y="612.7" class="st20" width="52.9" height="39"/>
		</g>
		<g>
			<path class="st31" d="M86.4,597.9v14.8H71.5v-14.9c0-0.1,0-0.3,0-0.4c0.2-1.7,1.3-3.1,2.8-3.8c1.1-0.5,1.8-1.4,1.9-2.6l0.1-2.1
				h5.5l0,2.1c0,1.2,0.8,2.2,1.8,2.6c1.5,0.6,2.6,2.1,2.8,3.8C86.4,597.6,86.4,597.8,86.4,597.9z"/>
			<polygon class="st24" points="82.1,589.9 75.7,589.9 75.9,588.2 82,588.2 			"/>
			<path class="st3" d="M86.4,597.9v9.6H71.5v-9.6c0-0.1,0-0.3,0-0.4h14.9C86.4,597.6,86.4,597.8,86.4,597.9z"/>
		</g>
		<g>
			<path class="st31" d="M98.7,604.5v8.3h-8.4v-8.3c0-0.1,0-0.2,0-0.2c0.1-1,0.7-1.8,1.5-2.1c0.6-0.3,1-0.8,1.1-1.5l0.1-1.2h3.1
				l0,1.2c0,0.7,0.4,1.2,1,1.5c0.8,0.4,1.5,1.2,1.6,2.1C98.7,604.3,98.7,604.4,98.7,604.5z"/>
			<polygon class="st24" points="96.3,600 92.7,600 92.8,599 96.2,599 			"/>
			<path class="st3" d="M98.7,604.5v5.3h-8.4v-5.4c0-0.1,0-0.2,0-0.2h8.3C98.7,604.3,98.7,604.4,98.7,604.5z"/>
		</g>
	</g>
	<g>
		<g>
			<path class="st20" d="M709.5,587c0,0-5.4-6.3-0.3-10.4c0,0,3.7-2.3,6.8-2.1c0,0-4.3,7.2-2.9,7.9c1.4,0.7,4.2-8.4,4.2-8.4
				s8.5-0.8,11.2,0.5c0,0-7.2,5.9-5.7,6.3c1.5,0.4,9.3-5.5,9.3-5.5s7.9,1.3,7.5,6.2s-3.1,6.3-4.3,6.2c-1.2-0.1-8.2-2.8-8.3-1.8
				c-0.2,1,4.1,4.2,7,4.3c0,0-5.6,6.1-9.3,4.4c-3.7-1.8-4-4.6-6.3-5.6s-4.3-1-3.3,0c1,1.1,5.1,2.1,6.4,4.4c1.3,2.3,2.5,3.9-1.3,3.3
				c-3.8-0.6-10-3.4-10.3-6.6C709.5,587,709.5,587,709.5,587z"/>
			<g>
				<path class="st20" d="M735.6,581.7c0,0-21.4-0.8-26.1,5.3c0,0-1,3.1-4.3,6l-0.5,1.4c0,0,3.7-3.9,5-4.1
					C709.8,590.2,707.7,582.6,735.6,581.7z"/>
				<path class="st20" d="M705.2,592.9c0,0-4.6,3.4-4.9,9.5l0.8,0.1c0,0,1.5-6.3,4.1-8.7C707.9,591.3,705.2,592.9,705.2,592.9z"/>
			</g>
		</g>
		<g>
			<path class="st32" d="M690.5,579c0,0,8.6-4.8,4.6-11.4c0,0-3.2-4-6.7-5.1c0,0,1.8,9.8,0,10c-1.8,0.2-1.3-11.1-1.3-11.1
				s-9.1-4.4-12.7-4c0,0,5.6,9.6,3.8,9.3c-1.8-0.2-8.2-9.9-8.2-9.9s-9.3-1.7-10.8,3.8c-1.5,5.5,0.9,8.3,2.3,8.6
				c1.4,0.3,10.3,0.2,10,1.4c-0.2,1.2-6.2,3-9.6,2c0,0,3.7,9.1,8.5,8.6c4.8-0.5,6.3-3.5,9.3-3.7c3-0.2,5.2,0.6,3.7,1.4
				c-1.5,0.8-6.6,0.3-9,2.3c-2.4,2.1-4.4,3.3,0.1,4.2c4.5,0.9,12.6,0.3,14.2-3.1C690.5,579,690.5,579,690.5,579z"/>
			<g>
				<path class="st32" d="M663.5,562.4c0,0,24.2,7.8,27,16.6c0,0-0.1,3.9,2.3,8.4v1.7c0,0-2.5-5.9-3.9-6.7
					C688.9,582.4,694.3,574.8,663.5,562.4z"/>
				<path class="st32" d="M692.8,587.4c0,0,3.7,5.7,1.6,12.6l-1-0.3c0,0,0.9-7.6-1-11.4C690.5,584.5,692.8,587.4,692.8,587.4z"/>
			</g>
		</g>
		<g>
			<path class="st21" d="M704.2,572.3c0,0-11.4-6.4-6.1-15c0,0,4.3-5.3,8.8-6.7c0,0-2.4,12.9,0,13.2c2.4,0.3,1.7-14.6,1.7-14.6
				s12-5.8,16.7-5.3c0,0-7.4,12.6-5,12.3c2.4-0.3,10.8-13.1,10.8-13.1s12.3-2.3,14.3,5c2,7.3-1.2,10.9-3,11.4
				c-1.8,0.5-13.5,0.3-13.2,1.8c0.3,1.5,8.2,3.9,12.6,2.6c0,0-4.9,12-11.2,11.4c-6.4-0.6-8.4-4.6-12.3-4.9c-3.9-0.3-6.8,0.8-4.9,1.8
				c2,1.1,8.7,0.3,11.8,3.1c3.2,2.7,5.8,4.4-0.2,5.6s-16.5,0.5-18.7-4.1C704.2,572.3,704.2,572.3,704.2,572.3z"/>
			<g>
				<path class="st32" d="M739.8,550.5c0,0-31.9,10.3-35.5,21.9c0,0,0.2,5.2-3,11.1v2.3c0,0,3.3-7.7,5.2-8.8
					C706.4,576.9,699.2,566.9,739.8,550.5z"/>
				<path class="st32" d="M701.2,583.4c0,0-4.9,7.5-2.1,16.6l1.3-0.3c0,0-1.2-10,1.3-15C704.3,579.5,701.2,583.4,701.2,583.4z"/>
			</g>
		</g>
		<path class="st20" d="M703.9,619.7c12.3,0,22.3-10,22.3-22.3h-44.6C681.6,609.7,691.5,619.7,703.9,619.7z"/>
		<path class="st20" d="M726.5,620.8h-45.2l0,0c0-1.5,1.2-2.8,2.8-2.8h39.7C725.2,618.1,726.5,619.3,726.5,620.8L726.5,620.8z"/>
		<rect x="680.8" y="597.4" class="st19" width="45.9" height="0.7"/>
	</g>
	<g>
		<path class="st33" d="M607.1,473c0,0-12.4,2.2-15.2,9.5c-2.8,7.3-18.6,125.4-18.6,125.4s7.8,6.2,24.7,4
			C614.8,609.7,607.1,473,607.1,473z"/>
		<path class="st34" d="M588.7,705.6c0,2.1-0.3,4.1-1.1,4.9h-30.7c0.4-1.1,1.5-2.8,4.7-3.3c3.6-0.6,9.2-2.3,12.4-5.8
			c1.2-1.2,2-2.7,2.4-4.4c1.4-6.4,12,2,12,2S588.7,702.4,588.7,705.6z"/>
		<path class="st34" d="M636.1,705.6c0,2.1-0.3,4.1-1.1,4.9h-30.7c0.4-1.1,1.5-2.8,4.7-3.3c3.6-0.6,9.2-2.3,12.4-5.8
			c1.2-1.2,2-2.7,2.4-4.4c1.4-6.4,12,2,12,2S636.1,702.4,636.1,705.6z"/>
		<path class="st35" d="M575.4,702.4c3.4,1.1,10,4.4,14.2,2.9c2.7-1,17.8-44.6,18.7-63.7c0.1-1.4,0.3-3.3,0.8-5.7
			c0.9-4.9,2.5-11.7,4.3-19.1c4.8-20,11.3-45,11.2-53c-0.2-12.4-37-2.6-37-2.6s-2.5,10.2-3,24.9c-1,29.3-3.7,78.7-11.2,113
			C573,700.6,574,702,575.4,702.4z"/>
		<path class="st36" d="M600.9,563.8l17.7,138c0,0,11.4,1.5,18-0.1c0,0,4.5-71.6,4-89.7c-0.5-18.1,4.1-48.5-1-51.8
			C634.6,556.9,600.9,563.8,600.9,563.8z"/>
		<path class="st3" d="M642.2,479.5c0,0-20.4-13.2-35.1-6.5c-2.3,1.1-5,4.1-6.9,6.2c-5.3,5.8-15.6,98.5-15.6,98.5s29.4,9.9,57.6-3.4
			V479.5z"/>
		<path class="st33" d="M605.9,472.7c0,0-20.7,8.5-23.5,15c-2.8,6.5-11.9,46.5-11.9,51.2c0,4.7,15.8,1,18.4-6.5
			c2.1-6.3,9.3-25.6,13-37.8L605.9,472.7z"/>
		<g>
			<path class="st26" d="M610.2,479.2c4.5,0.9,11.1-0.1,16-3.3c-2.2-5.2-3.1-9.4-3.4-12c0-0.1,0-0.3,0-0.4c-0.1-1.4-0.1-2.3-0.1-2.8
				H611c0,0-3.2,1.5-3.2,2.5c0,0.5,0,1.1,0,1.5c0,1.3-0.1,2.5-0.1,3.5c-0.2,3.3-0.6,4.8-0.6,4.8S605.7,478.3,610.2,479.2z"/>
			<path class="st37" d="M607.7,468.2c8.8,1.7,14-3.1,15.1-4.4c0.2-0.2,0.2-0.3,0.2-0.3c-0.1,0-0.2-0.1-0.3-0.1
				c-3.3-1.3-10.8-0.3-14.9,1.3C607.8,466,607.8,467.2,607.7,468.2z"/>
			<path class="st26" d="M625.7,458.8c-1.6,8.5-12.6,8.2-17.3,7.7c-1.3-0.1-2.2-0.3-2.2-0.3c-1.5-0.4-2.3-2.8-2.7-5.9
				c-0.8-6.1,0.2-15.2,1.2-17.5c1.6-3.5,4.5-7.2,15.6-4.5C631.3,441,627.7,447.9,625.7,458.8z"/>
			<path class="st34" d="M604.3,438c1.5-2.1,4.7-4.6,7.6-6.2c6.2-3.4,14.2,0.1,14.3,0.1c9,4,11.4,10.9,6.6,21.6
				c-5.1,11.4-9.9,10.1-9.9,10.1s1-0.6,0.9-4.2c0-0.2,0-0.4,0-0.5c0-0.7,0.2-1.5,0.8-1.9c1.1-1,1.7-4,0.7-4.9
				c-1.1-1-2.7,0.2-3.2,1.2c-0.4,0.7-1.2,0.9-2,0.4c-2.8-1.8-1-5.3-3.7-7.5c-2.7-2.2-8.1-0.3-12.2-2.1
				C599,442.2,603.2,439.6,604.3,438z"/>
		</g>
		<path class="st33" d="M603.1,616.6c1.8,0.5,3.5,0.8,5.3,1.1c1.5,0.3,3.1,0.5,4.6,0.6c8.7,0.8,17.5-0.5,27.8-3.4
			c2.3-0.7,4.7-1.4,7.2-2.2c0.3-0.1-0.7-27.2-1.8-55.2c-0.1-2.9-0.2-5.8-0.3-8.7c0-1.2-0.1-2.4-0.1-3.6c-1-24.8-2-47.1-2.2-48.3
			c-0.5-2.7-0.9-5-1.4-7.1c-1.4-5.9-3.1-9.1-6.9-11.8c-0.4-0.3-3.4-1.8-6.1-3.1c-2.2-1.1-4.2-2.1-4.2-2.1c0,0,0,0,0,0
			c-0.9,0.4-1.9,2.4-3,5.3c-2,5.2-4.2,13.2-5.8,19.2c0,0,0,0,0,0c0,0,0,0,0,0c-1,3.9-1.7,6.9-1.9,7.7c-0.3,1.5-0.8,4.3-1.3,8.1
			c-0.7,5.2-1.6,12.2-2.5,20.2c-0.1,0.8-0.2,1.7-0.3,2.5c-0.1,1-0.2,1.9-0.3,2.9c0,0.3-0.1,0.6-0.1,0.9c-0.4,3.2-0.7,6.4-1.1,9.8
			c-0.3,2.7-4.5,4.7-4.7,7.5c-0.2,1.6-0.5,16.8-1,21.6C602.7,581.9,603,615,603.1,616.6z"/>
		<path class="st38" d="M633.2,506.8c0,0.1,0.7,25-18.1,28.1c-18.8,3-6.3,3.8-6.3,3.8s35.3-1.5,35.9-2.4
			C645.3,535.3,633.2,506.8,633.2,506.8z"/>
		<path class="st38" d="M617.3,545.6c0,0,0.4,0.2,1,0.7c0,0,0,0,0,0c2.9,1.8,11.4,6.8,23.8,10.2c1.3,0.4,2.6,0.7,4,1
			c-0.1-2.9-0.2-5.8-0.3-8.7c1.6-0.1,3.2-0.3,4.7-0.6c0-0.4-0.1-0.8-0.1-1.1c-1.6-0.6-3.1-1.3-4.7-1.9c-1.2-0.5-2.4-0.9-3.5-1.4
			c-5.1-1.9-8.9-3.2-8.9-3.2l-15.1,4.8L617.3,545.6z"/>
		<path class="st33" d="M613.4,545.2c0,0,1.9,0.5,5,1.1c0,0,0,0,0,0c5.7,1.1,15.2,2.7,23.8,2.7c1.3,0,2.5-0.1,3.7-0.2
			c1.6-0.1,3.2-0.3,4.7-0.6c3.1-0.7,5.7-1.8,7.4-3.5c12.7-12.9-6.9-59.3-11-63.8c-4.8-5.3-13.6-7.1-18.5-7.8c-0.2,0-0.4-0.1-0.6-0.1
			c-1.7-0.2-2.8-0.2-2.9-0.2c0,0,0,0,0,0s0.4,1.2,1,3.3c0.2,0.8,0.5,1.7,0.8,2.8c3,9.8,8.7,28.9,11.3,39.8c0.9,4,1.4,6.8,1.2,7.6
			c-1,3.7-11.2,5.6-17.7,6.4c-2.7,0.4-4.8,0.5-5.2,0.6c0,0-0.1,0-0.1,0l-0.4,1.5l-0.9,3.7l-0.9,3.6L613.4,545.2z"/>
		<polygon class="st34" points="578,567.4 621.5,565.6 612.7,511.3 569.1,513.1 		"/>
		<path class="st26" d="M616.3,533.2c0,0-8.5-0.6-8.9,1.4c-1,4.6,7.3,8.4,10,8.1C620,542.5,618.2,532.9,616.3,533.2z"/>
		<path class="st26" d="M571.5,524.1c0,0,8.1-2.5,9-0.7c2,4.3-5.2,9.9-7.8,10.2C570,534,569.5,524.3,571.5,524.1z"/>
		<path class="st38" d="M624.1,470c0,0,4,0.7,5.8,3.3c0,0-13.8,24.2-13.7,23.9C616.3,497,620.7,473,624.1,470z"/>
		<path class="st38" d="M607.5,470.3c-1.2,0.4-3.4,2.8-3.9,4l-1.6,20.2c0,0,3.4-14.8,5.1-21.5C607.5,471.3,607.5,470.8,607.5,470.3z
			"/>
		<path class="st39" d="M598.3,511.9c0,0-0.3-1.5-2.3-1.3c-2,0.2-13.1,0.7-13.1,0.7s-2.1,0-1.9,1.3L598.3,511.9z"/>
	</g>
	<polygon class="st3" points="373.9,483.1 374.5,488 376.1,488 376.6,483.1 	"/>
	<g>
		<path class="st3" d="M353.8,594.7c-4.1,0-8.8-0.8-13.9-2.4c-9.4-3-17.1-7.7-17.2-7.7l0.5-0.8c0.3,0.2,30.6,18.3,44,5.3
			c10.1-9.8,11.6-36.7,11.2-57.5c-0.5-22.6-3.5-43.2-3.5-43.4l1-0.1c0,0.2,3,20.8,3.6,43.5c0.7,30.6-3.1,50.2-11.5,58.2
			C364.5,593,359.8,594.7,353.8,594.7z"/>
	</g>
	<path class="st3" d="M320.5,586.2L320.5,586.2c-0.4-0.7-0.2-1.6,0.5-2l2.5-1.5c0.7-0.4,1.6-0.2,2,0.5l0,0c0.4,0.7,0.2,1.6-0.5,2
		l-2.5,1.5C321.7,587.1,320.9,586.8,320.5,586.2z"/>
	<g>
		<path class="st29" d="M459.8,446.7c0-0.6,0.5-7.6,11.2-8c0,0-5.2,0.6-6.1,2.9c0,0,3.6-2.8,6.5-1.9c2.9,0.9,4.6,6,4.6,7.7
			c0,1.7-1.6,7.1-3.4,7.5c-0.7,0.2-1.5,0.1-2.2,0c0.5,0.8,1,1.6,1.4,2.6c4.2,8.7-0.1,17.2-3.7,16.3c-2.3-0.6-3,3.3-3,3.3L442.6,459
			C442.6,459,450.8,441.9,459.8,446.7z"/>
		<path class="st26" d="M398.7,555.7c1.9,1.7,6.8-4,7.5-4.8c0-0.1,0.1-0.1,0.1-0.1l-1.5-4.2c0,0-6.5-0.3-7.6,0.8
			C396.1,548.5,396.7,554,398.7,555.7z"/>
		<path class="st26" d="M404.8,546.6l0.6,4.4c0,0,0.3,0,0.8,0c1.6-0.1,5.4-0.3,9.8-0.8c4.2-0.4,8.8-1,12.4-1.9
			c2.1-0.5,3.9-1.1,5-1.8c4.7-2.9,12.5-11.7,17.5-20.5c0.1-0.2,0.3-0.4,0.4-0.6c1.7-3,3.1-6,3.9-8.8c0.4-1.5,0.7-2.9,0.7-4.3
			c0.1-2.3-0.1-4.2-0.6-5.9c-0.6-2.2-1.6-4-2.7-5.3c-0.1-0.2-0.3-0.4-0.5-0.6c-1.7-2.1-3.4-2.9-3.4-2.9c-0.7-0.3-1.4-0.1-2.2,0.6
			c-0.1,0.1-0.2,0.1-0.3,0.2c0,0,0,0,0,0c-0.1,0.1-0.2,0.2-0.3,0.3v0c-0.3,0.3-0.6,0.6-0.9,1c0,0,0,0,0,0c-0.5,0.7-1.1,1.6-1.6,2.6
			c0,0-0.1,0.1-0.1,0.1c-0.2,0.3-0.4,0.7-0.6,1.1c-0.1,0.1-0.1,0.2-0.1,0.3c-0.4,0.8-0.8,1.7-1.2,2.6c-4.4,9.7-9.1,24.3-13.1,28.6
			c-0.9,1-3.6,2.6-6.8,4.2v0c-0.1,0-0.1,0.1-0.2,0.1c0,0,0,0,0,0c-2.7,1.4-5.8,2.8-8.5,4C408.4,545.2,404.8,546.6,404.8,546.6z"/>
		<path class="st33" d="M421.4,539.3c0.2,0.5,1.2,2.7,2.7,5c1.2,1.9,2.9,3.8,4.8,4.7c1.5-0.7,4.1-1.8,5.3-2.5
			c4.1-2.5,9.9-9.6,14.7-17.2c0.7-1.2,1.4-2.3,2.1-3.5c0.1-0.2,0.3-0.4,0.4-0.6c1.7-3,3.1-6,3.9-8.8l-8.6-18.5l0,0
			c0,0-0.1,0.1-0.2,0.3c0,0,0,0,0,0c-0.2,0.3-0.7,0.8-1.2,1.4c0,0,0,0,0,0c-0.5,0.7-1.1,1.6-1.6,2.6c0,0-0.1,0.1-0.1,0.1
			c-0.2,0.3-0.4,0.7-0.6,1.1c-0.1,0.1-0.1,0.2-0.1,0.3c-0.4,0.8-0.8,1.7-1.2,2.6c-4.4,9.7-9.1,24.3-13.1,28.6
			c-0.9,1-3.6,2.6-6.8,4.2v0C421.5,539.2,421.4,539.3,421.4,539.3z"/>
		<path class="st38" d="M424.1,544.3c1.2,1.9,2.9,3.8,4.8,4.7c1.5-0.7,4.1-1.8,5.3-2.5c4.1-2.5,9.9-9.6,14.7-17.2
			c-0.2-2.4-12.7,9.9-14.3,12.1C433.4,543.2,427.2,544,424.1,544.3z"/>
		<path class="st36" d="M452,703.5l4.8,1.8c0,0,20.7-28.7,23.2-53.9c0.5-4.5,0.3-8.9-0.7-12.9c0,0,0.2-1.2,0.6-3.2
			c0.2-1,0.4-2.1,0.6-3.4c0.7-3.8,1.6-9.1,2.7-15.1c2.4-13.8,5.6-31.4,8-44.4l-1.3-0.4l-13.9-4.5l-2.9-9.1l-10.3-2.7
			c0,0-2.3,4.5-4.4,25.8c-0.4,2.8-0.7,5.9-1,9.2c-0.8,10.2-0.9,22.9,1,37.4c0.5,3.7,1.1,7.5,1.8,11.5c0.5,2.9,0.6,6.8,0.4,11.3
			C459.5,671.5,452,703.5,452,703.5z"/>
		<path class="st35" d="M457.4,590.8l22.4,44.6c0.2-1,0.4-2.1,0.6-3.4c0.7-3.8,1.6-9.1,2.7-15.1c2.4-13.8,5.6-31.4,8-44.4l-1.3-0.4
			l-13.9-4.5l-2.9-9.1l-10.3-2.7c0,0-2.3,4.5-4.4,25.8C458,584.3,457.6,587.4,457.4,590.8z"/>
		<path class="st36" d="M467.2,561.4l0.5-4.5c8.7,2.3,31.9-6.5,31.9-6.5s8.4,7.4,7.3,25.2c-0.5,8.7-1.5,45.5-2.6,56.4
			c-0.4,4-0.7,6.8-0.8,7.9c0,0,0,0,0,0c0,0.3,0.1,0.7,0.3,1c1.5,2.6,2.8,5.3,3.8,8c10.1,27-1.6,60.1-1.6,60.1l-3-1.2
			c0,0-6.6-36.9-12-53.3c-0.9-2.8-1.8-4.9-2.6-6.2c-2.3-3.8-4.5-10-6.5-17.3c-3.7-13.9-6.7-32-8.7-46
			C473,585,467.2,561.4,467.2,561.4z"/>
		<path class="st26" d="M460.6,509.7c15,0.8,11.7-21.5,10.8-21.4c-1.8-1-5.1-5.6-7-13.4l-0.6,0.3l-10.8,5.1c0,0,1.1,3.5,2,6.9
			c0.7,2.6,1.1,5.2,0.7,5.9c-0.9,0.3-1.4,0.6-1.4,0.6s0,0,0,0C454.2,494,456.7,509.5,460.6,509.7z"/>
		<path class="st40" d="M452.9,480.4c0,0,1.1,3.5,2,6.9c6.3-1.8,8.2-8.4,8.8-11.9L452.9,480.4z"/>
		<path class="st26" d="M451.6,484.1c0,0,15.1-3.5,12.8-12.9c-2.3-9.4-1.9-16.1-11.7-14.3c-9.7,1.8-10.7,5.9-10.7,9.2
			C442,469.5,447.6,484.8,451.6,484.1z"/>
		<path class="st29" d="M441.2,460.8c1.6-3.4,3.5-3.2,4.7-2.6c7.1-6.6,14-1.2,14-1.2c2.7,6.5,8.5,9.1,8.5,9.1s-2.3,2.4-9,2.3
			c-2.1,0-4.1-1-6-2.3c3.6,3.6,7.9,5.9,7.9,5.9c-8.4-1.6-14.1-11.3-14.6-12.4c-0.7,1.1-2.1,3.3-2.2,5.2c-0.2,2.6,0.7,7.6-0.7,7.8
			C443.7,472.6,438.7,465.9,441.2,460.8z"/>
		<path class="st34" d="M488.5,711.5h24c0,0,0.6-3.7-0.7-6.4c-1.2-2.7-3.1-3.9-2.6-7.1c-1.5,1.6-4,3.3-7.5,2.9
			c-0.4,0.7-2.7,4.4-4.2,5.4C496,707.4,489,707,488.5,711.5z"/>
		<path class="st34" d="M437.1,711.5h24c0,0,0.9-3.8-0.7-6.4c-1.4-2.3-0.9-3.6,0.2-5.5c-1.1,0.4-2.5,0.8-4,0.8
			c-1.2-0.1-2.5-0.6-3.6-1.3c-1,1.2-5.4,6.2-6.8,7.2C444.5,707.4,437.6,707,437.1,711.5z"/>
		<path class="st33" d="M446.5,498l3.9,52.8l2.4,32.3c3.7,1.1,7.2,2,10.6,2.7c0.2-2.7,1.1-5.9,1.1-5.9c0,1.7,2,5,3.1,6.7
			c30.7,4.9,45.1-8.5,45.1-8.5c-1.2-11.8-6.4-35.8-12.6-55.9c-1.3-4.2-2.6-8.2-4-11.9c-3.1-8.4-5-12.8-6.7-16.2
			c-3.1-6.5-17.2-6.1-17.2-6.1c-2.7,9.8-10.2,15.9-10.2,15.9c-4-2.3-6.9-10.5-6.9-10.5L446.5,498z"/>
		<path class="st41" d="M469.2,486.2c0,0,2.6,0.2,3.1,1.8c0,0-3.3,13.4-10.2,15.9L469.2,486.2z"/>
		<path class="st41" d="M462.1,503.9c0,0-6.4-10.6-6.3-12.2c0,0-2.6,1-2.5,2.7C453.3,494.3,458.8,503.1,462.1,503.9z"/>
		<path class="st38" d="M479.6,499.1c-0.2,0.6-23.2,37.3-23.7,44.6c-0.5,7.3,9.7,3.2,9.8,2.2C465.9,545,479.6,499.1,479.6,499.1z"/>
		<path class="st38" d="M450.4,550.7l2.4,32.3c32.9-9.5,34.7-78.8,34.7-78.8l-20.3,36.7l-16.6,9.6
			C450.6,550.5,450.6,550.6,450.4,550.7z"/>
		<path class="st26" d="M435.8,553.7l1.3,4.6c0,0,1.6-0.3,4.1-0.8c0.8-0.1,1.2-0.3,1.2-0.3c2-0.4,4.4-0.9,7.1-1.5h0
			c4.5-1.1,9.5-2.4,13.8-3.8c0.4-0.1,0.8-0.3,1.1-0.4c2.5-0.9,4.7-1.9,6.2-2.9c0.2-0.1,0.3-0.2,0.5-0.4c4.2-3.1,9.2-12.1,13.1-21.7
			c0.5-1.3,1-2.7,1.5-4c1.8-4.8,3.2-9.6,4.1-13.7c0.5-2.4,0.9-4.7,1-6.5c0-0.6,0.1-1.3,0-1.8c-0.1-10.4-7.5-11.5-8.4-10.3
			c-1.2,1.5-2.5,3.9-3.9,6.8c-2.1,4.6-4.2,10.7-6.2,16.6c-1.1,3.3-2.2,6.6-3.3,9.6c-0.6,1.8-1.2,3.6-1.8,5.1c-1.1,3-2.1,5.5-3,7
			c-0.6,1-2.2,2.4-4.4,4c-0.6,0.4-1.2,0.9-1.9,1.3c-3.6,2.5-8.3,5.2-12.4,7.6c-2,1.2-3.9,2.2-5.5,3.1
			C437.5,552.8,435.8,553.7,435.8,553.7z"/>
		<path class="st33" d="M458,540.8c0,0-0.3,8.7,7.9,12.9c9.4-3.4,14.5-17.5,18.4-27.1c0.5-1.3,1-2.7,1.5-4c1.8-4.8,3.2-9.6,4.1-13.7
			c0.5-2.4,0.9-4.7,1-6.5c0-0.6,0.1-1.3,0-1.8c-0.1-10.4-7.5-11.5-8.4-10.3c-1.2,1.5-2.5,3.9-3.9,6.8c-2.1,4.6-4.2,10.7-6.2,16.6
			c-1.1,3.3-2.2,6.6-3.3,9.6c-0.6,1.8-1.2,3.6-1.8,5.1c-1.1,3-2.1,5.5-3,7c-0.6,1-2.2,2.4-4.4,4C459.3,539.9,458.6,540.3,458,540.8z
			"/>
		<path class="st33" d="M421.4,539.2C421.4,539.3,421.4,539.3,421.4,539.2C421.4,539.3,421.4,539.2,421.4,539.2
			C421.4,539.2,421.3,539.2,421.4,539.2z"/>
		<g>
			<g>
				
					<rect x="400.4" y="438.7" transform="matrix(-1 -1.224647e-16 1.224647e-16 -1 807.1086 1147.7787)" class="st3" width="6.3" height="270.3"/>
				<g>
					<path class="st3" d="M375.6,483.8h0.9c5.3,0,9.6-4.3,9.6-9.6v-25.9H366v25.9C366,479.5,370.3,483.8,375.6,483.8z"/>
					<path class="st20" d="M375.5,482.1h0.8c4.4,0,8.1-3.6,8.1-8.1v-5.9h-16.9v5.9C367.4,478.4,371,482.1,375.5,482.1z"/>
				</g>
				
					<rect x="361.7" y="438.7" transform="matrix(-1 -1.224647e-16 1.224647e-16 -1 768.423 882.28)" class="st3" width="45" height="4.8"/>
				
					<rect x="374.1" y="443.6" transform="matrix(-1 -1.224647e-16 1.224647e-16 -1 751.7142 892.9824)" class="st3" width="3.5" height="5.9"/>
			</g>
			<rect x="386.6" y="703.7" class="st3" width="35.3" height="6.8"/>
		</g>
		<rect x="400.4" y="548" class="st3" width="28.9" height="12.6"/>
		<rect x="403.6" y="550.3" class="st20" width="23.4" height="6.4"/>
		<path class="st26" d="M421.9,553.2c2,0,5.1-0.1,6.9-0.8c0,0-5.8-0.1-4.6-1.9c0.2-0.3,3.1-0.1,6.3-0.1c1.3,0,4.6,1.8,4.4,1.9
			c2.3-0.3,4.4-0.8,5.1-0.9c0.2,0,0.3-0.1,0.3-0.1l2.1,6c0,0-0.4,0.1-1.2,0.3c-1.9,0.5-5.8,1.5-9.5,2.9c-5.2,2.1-9-0.5-10.7-2.3
			c-1.1-1.1-2-2.7-1.9-3.8C419.1,553.2,420.7,553.3,421.9,553.2z"/>
	</g>
</g>
</svg>
