<?xml version="1.0" encoding="utf-8"?>
<!-- Generator: Adobe Illustrator 25.3.1, SVG Export Plug-In . SVG Version: 6.00 Build 0)  -->
<svg version="1.1" id="Layer_1" xmlns="http://www.w3.org/2000/svg" xmlns:xlink="http://www.w3.org/1999/xlink" x="0px" y="0px"
	 viewBox="0 0 280.9 88.3" style="enable-background:new 0 0 280.9 88.3;" xml:space="preserve">
<style type="text/css">
	.st0{display:none;}
	.st1{display:inline;fill:url(#SVGID_1_);}
	.st2{display:inline;fill:#343434;}
	.st3{fill:#343434;}
	.st4{font-family:'MyriadPro-Bold';}
	.st5{font-size:32.7169px;}
	.st6{fill:url(#SVGID_2_);}
	.st7{fill:url(#SVGID_3_);}
</style>
<g class="st0">
	
		<linearGradient id="SVGID_1_" gradientUnits="userSpaceOnUse" x1="76.9323" y1="52.3355" x2="88.1823" y2="68.0021" gradientTransform="matrix(1 0 0 1 0 0.7802)">
		<stop  offset="0" style="stop-color:#04BEFE"/>
		<stop  offset="0.5044" style="stop-color:#19A6F1"/>
		<stop  offset="1" style="stop-color:#318BE3"/>
	</linearGradient>
	<path class="st1" d="M89.8,57.5l-4.5-0.7l-2-4.3c-0.1-0.3-0.4-0.5-0.8-0.5c-0.3,0-0.6,0.2-0.8,0.5l-2,4.3l-4.4,0.7
		c-0.3,0-0.6,0.3-0.7,0.6c-0.1,0.3,0,0.7,0.2,0.9l3.3,3.3L77.3,67c-0.1,0.3,0.1,0.7,0.3,0.9c0.3,0.2,0.6,0.2,0.9,0.1l4-2.2l4,2.2
		c0.1,0.1,0.3,0.1,0.4,0.1c0.2,0,0.4-0.1,0.5-0.2c0.3-0.2,0.4-0.5,0.3-0.9l-0.8-4.7l3.3-3.3c0.2-0.2,0.3-0.6,0.2-0.9
		C90.4,57.7,90.1,57.5,89.8,57.5z"/>
</g>
<g class="st0">
	<path class="st2" d="M98.3,59.1c0-0.9,0.4-1.7,1.2-2.4c0.8-0.6,1.8-1,3.1-1s2.3,0.3,3,1c0.8,0.6,1.2,1.5,1.2,2.6h-2.3
		c0-0.5-0.2-1-0.6-1.3c-0.3-0.3-0.8-0.5-1.4-0.5c-0.6,0-1.1,0.1-1.4,0.4c-0.3,0.3-0.5,0.6-0.5,1.1c0,0.4,0.2,0.8,0.7,1
		c0.4,0.3,1,0.4,1.6,0.6c0.6,0.1,1.3,0.3,1.9,0.4c0.6,0.2,1.2,0.5,1.6,1c0.4,0.5,0.7,1.1,0.7,1.9c0,1-0.4,1.7-1.2,2.3
		c-0.8,0.6-1.8,0.9-3.1,0.9s-2.3-0.3-3.1-0.9s-1.2-1.5-1.3-2.6h2.4c0,0.5,0.2,1,0.6,1.3c0.4,0.3,0.8,0.5,1.5,0.5s1.1-0.1,1.5-0.4
		s0.6-0.6,0.6-1.1c0-0.5-0.2-0.8-0.7-1.1c-0.4-0.3-1-0.4-1.6-0.6c-0.6-0.1-1.3-0.3-1.9-0.4c-0.6-0.2-1.2-0.5-1.6-0.9
		C98.5,60.4,98.3,59.8,98.3,59.1z"/>
	<path class="st2" d="M114.8,57.8h-2.7v6.1c0,0.4,0.1,0.7,0.3,0.9c0.2,0.2,0.5,0.3,1,0.3h1.4V67H113c-2.1,0-3.2-1-3.2-3.1v-6.1h-1.3
		v-1.9h1.3v-2.7h2.3v2.7h2.7V57.8z"/>
	<path class="st2" d="M117.7,65.5c-1-1.1-1.5-2.4-1.5-4.1s0.5-3,1.5-4.1c1-1,2.2-1.6,3.7-1.6c0.9,0,1.6,0.2,2.3,0.6s1.2,0.9,1.5,1.5
		v-2h2.3v11h-2.3v-1.9c-0.4,0.7-0.9,1.2-1.5,1.6c-0.7,0.4-1.4,0.6-2.3,0.6C119.9,67.1,118.7,66.6,117.7,65.5z M124.2,64.1
		c0.7-0.7,1-1.6,1-2.7s-0.3-2-1-2.7s-1.4-1-2.3-1c-0.9,0-1.7,0.3-2.3,1s-1,1.5-1,2.7c0,1.1,0.3,2,1,2.7c0.7,0.7,1.4,1,2.3,1
		C122.7,65.2,123.5,64.8,124.2,64.1z"/>
	<path class="st2" d="M132.8,55.9v2c0.7-1.4,1.8-2.1,3.3-2.1v2.4h-0.6c-0.9,0-1.6,0.2-2,0.7s-0.7,1.2-0.7,2.4v5.8h-2.3V55.9
		L132.8,55.9L132.8,55.9z"/>
	<path class="st2" d="M147.7,67l-1.1-3h-6.2l-1.1,3h-1.9l5-13.9h2l5,13.9H147.7z M141,62.5h5.1l-2.6-7.2L141,62.5z"/>
	<path class="st2" d="M152.8,65.5c-1-1.1-1.5-2.4-1.5-4.1s0.5-3,1.5-4.1c1-1,2.2-1.6,3.8-1.6c0.9,0,1.8,0.2,2.5,0.7s1.2,1,1.6,1.7
		v-6h1.8v14.8h-1.8v-2.2c-0.4,0.7-0.9,1.3-1.6,1.8c-0.7,0.4-1.5,0.7-2.5,0.7C155,67.1,153.8,66.6,152.8,65.5z M159.4,64.5
		c0.7-0.7,1.1-1.7,1.1-3c0-1.2-0.4-2.2-1.1-3c-0.7-0.7-1.6-1.1-2.6-1.1s-1.9,0.4-2.6,1.1s-1.1,1.7-1.1,2.9c0,1.2,0.4,2.2,1.1,3
		c0.7,0.8,1.6,1.2,2.6,1.2C157.9,65.6,158.7,65.2,159.4,64.5z"/>
	<path class="st2" d="M167.2,56v1.8c0.7-1.3,1.9-2,3.6-2c0.8,0,1.6,0.2,2.3,0.6c0.7,0.4,1.2,1,1.5,1.8c0.4-0.7,0.9-1.3,1.6-1.7
		c0.7-0.4,1.5-0.6,2.4-0.6c1.2,0,2.3,0.4,3.1,1.2c0.8,0.8,1.2,2,1.2,3.5v6.5h-1.8v-6.2c0-1.1-0.3-1.9-0.8-2.5s-1.3-0.9-2.2-0.9
		s-1.7,0.3-2.2,0.9s-0.8,1.4-0.8,2.5v6.2h-1.8v-6.2c0-1.1-0.3-1.9-0.8-2.5s-1.3-0.9-2.2-0.9c-0.9,0-1.7,0.3-2.2,0.9
		s-0.8,1.4-0.8,2.5v6.2h-1.8v-11L167.2,56C167.2,56.1,167.2,56,167.2,56z"/>
	<path class="st2" d="M187.6,53.9c-0.2,0.2-0.5,0.4-0.9,0.4c-0.4,0-0.6-0.1-0.9-0.4c-0.2-0.2-0.3-0.5-0.3-0.9s0.1-0.6,0.4-0.9
		c0.2-0.2,0.5-0.4,0.9-0.4c0.4,0,0.6,0.1,0.9,0.4c0.2,0.2,0.4,0.5,0.4,0.9S187.8,53.6,187.6,53.9z M185.8,67V56h1.8v11H185.8z"/>
	<path class="st2" d="M192.4,56v1.8c0.7-1.3,1.9-2,3.6-2c1.2,0,2.2,0.4,3,1.2c0.8,0.8,1.2,2,1.2,3.5V67h-1.8v-6.2
		c0-1.1-0.3-1.9-0.8-2.5s-1.3-0.9-2.2-0.9s-1.7,0.3-2.2,0.9s-0.8,1.4-0.8,2.5V67h-1.8V56C190.6,56,192.4,56,192.4,56z"/>
</g>
<g>
	<text transform="matrix(1 0 0 1 47.6246 53.7294)" class="st3 st4 st5">Bantaeng Sehat</text>
	<g>
		<linearGradient id="SVGID_2_" gradientUnits="userSpaceOnUse" x1="2.357" y1="44.1777" x2="18.7147" y2="44.1777">
			<stop  offset="0" style="stop-color:#04BEFE"/>
			<stop  offset="0.5044" style="stop-color:#19A6F1"/>
			<stop  offset="1" style="stop-color:#318BE3"/>
		</linearGradient>
		<path class="st6" d="M2.4,33.4c1.3-0.3,4-0.5,6.4-0.5c3,0,4.9,0.3,6.5,1.2c1.5,0.8,2.7,2.3,2.7,4.3c0,2-1.1,3.8-3.6,4.7v0.1
			c2.5,0.7,4.4,2.6,4.4,5.4c0,2-0.9,3.6-2.3,4.7c-1.6,1.3-4.3,2-8.7,2c-2.5,0-4.3-0.2-5.4-0.3V33.4z M7.3,41.9h1.6
			c2.6,0,4-1.1,4-2.7c0-1.7-1.3-2.6-3.5-2.6c-1.1,0-1.7,0.1-2.1,0.1V41.9z M7.3,51.6c0.5,0.1,1.1,0.1,1.9,0.1c2.3,0,4.3-0.9,4.3-3.2
			c0-2.2-2-3.1-4.5-3.1H7.3V51.6z"/>
		<linearGradient id="SVGID_3_" gradientUnits="userSpaceOnUse" x1="21.2669" y1="44.1277" x2="36.4141" y2="44.1277">
			<stop  offset="0" style="stop-color:#04BEFE"/>
			<stop  offset="0.5044" style="stop-color:#19A6F1"/>
			<stop  offset="1" style="stop-color:#318BE3"/>
		</linearGradient>
		<path class="st7" d="M22.3,50c1.3,0.7,3.4,1.4,5.5,1.4c2.3,0,3.5-0.9,3.5-2.4c0-1.4-1-2.2-3.7-3.1c-3.7-1.3-6.1-3.3-6.1-6.5
			c0-3.8,3.1-6.6,8.3-6.6c2.5,0,4.3,0.5,5.6,1.1l-1.1,4c-0.9-0.4-2.5-1-4.6-1s-3.2,1-3.2,2.1c0,1.4,1.2,2,4.1,3.1
			c3.9,1.4,5.7,3.5,5.7,6.6c0,3.7-2.8,6.8-8.9,6.8c-2.5,0-5-0.7-6.2-1.3L22.3,50z"/>
	</g>
</g>
</svg>
